<svg width="49" height="50" viewBox="0 0 49 50" fill="none" xmlns="http://www.w3.org/2000/svg">
<g id="Frame">
<path id="Vector" d="M4.08301 42.3542V26.0208H20.4163V42.3542H4.08301ZM8.16634 38.2708H16.333V30.1042H8.16634V38.2708ZM11.2288 20.9167L22.458 2.54167L33.6872 20.9167H11.2288ZM18.4768 16.8333H26.4393L22.458 10.4021L18.4768 16.8333ZM44.0486 47.3563L38.6382 41.9458C37.9236 42.4222 37.1495 42.7795 36.3158 43.0177C35.4821 43.2559 34.6059 43.375 33.6872 43.375C31.1351 43.375 28.9658 42.4818 27.1794 40.6953C25.3929 38.9089 24.4997 36.7396 24.4997 34.1875C24.4997 31.6354 25.3929 29.4661 27.1794 27.6797C28.9658 25.8932 31.1351 25 33.6872 25C36.2393 25 38.4085 25.8932 40.195 27.6797C41.9814 29.4661 42.8747 31.6354 42.8747 34.1875C42.8747 35.0722 42.7556 35.9314 42.5174 36.7651C42.2792 37.5988 41.9389 38.3729 41.4965 39.0875L46.907 44.4979L44.0486 47.3563ZM33.6872 39.2917C35.1163 39.2917 36.3243 38.7983 37.3111 37.8115C38.2979 36.8247 38.7913 35.6167 38.7913 34.1875C38.7913 32.7583 38.2979 31.5503 37.3111 30.5635C36.3243 29.5767 35.1163 29.0833 33.6872 29.0833C32.258 29.0833 31.05 29.5767 30.0632 30.5635C29.0764 31.5503 28.583 32.7583 28.583 34.1875C28.583 35.6167 29.0764 36.8247 30.0632 37.8115C31.05 38.7983 32.258 39.2917 33.6872 39.2917Z" fill="white"/>
</g>
</svg>
