<svg width="36" height="34" viewBox="0 0 36 34" fill="none" xmlns="http://www.w3.org/2000/svg">
<path d="M12.6168 33.625L9.6085 28.5583L3.9085 27.2917L4.46266 21.4333L0.583496 17L4.46266 12.5667L3.9085 6.70833L9.6085 5.44167L12.6168 0.375L18.0002 2.67083L23.3835 0.375L26.3918 5.44167L32.0918 6.70833L31.5377 12.5667L35.4168 17L31.5377 21.4333L32.0918 27.2917L26.3918 28.5583L23.3835 33.625L18.0002 31.3292L12.6168 33.625ZM13.9627 29.5875L18.0002 27.8458L22.1168 29.5875L24.3335 25.7875L28.6877 24.7583L28.2918 20.325L31.221 17L28.2918 13.5958L28.6877 9.1625L24.3335 8.2125L22.0377 4.4125L18.0002 6.15417L13.8835 4.4125L11.6668 8.2125L7.31266 9.1625L7.7085 13.5958L4.77933 17L7.7085 20.325L7.31266 24.8375L11.6668 25.7875L13.9627 29.5875ZM16.3377 22.6208L25.2835 13.675L23.0668 11.3792L16.3377 18.1083L12.9335 14.7833L10.7168 17L16.3377 22.6208Z" fill="white"/>
</svg>
