<svg width="49" height="50" viewBox="0 0 49 50" fill="none" xmlns="http://www.w3.org/2000/svg">
<g id="Frame">
<path id="Vector" d="M36.6478 33.524L30.829 27.7563L33.7384 24.8979L36.6478 27.7563L43.8446 20.5594L46.754 23.4177L36.6478 33.524ZM22.4582 43.375L15.9759 37.5562C13.5259 35.3444 11.4247 33.3708 9.67223 31.6354C7.9198 29.9 6.47362 28.2667 5.33369 26.7354C4.19376 25.2042 3.36008 23.724 2.83265 22.2948C2.30522 20.8656 2.0415 19.3684 2.0415 17.8031C2.0415 14.6045 3.11338 11.9418 5.25713 9.8151C7.40088 7.68837 10.0721 6.625 13.2707 6.625C15.0401 6.625 16.7245 6.99931 18.3238 7.74792C19.9231 8.49653 21.3012 9.55139 22.4582 10.9125C23.6151 9.55139 24.9932 8.49653 26.5925 7.74792C28.1918 6.99931 29.8762 6.625 31.6457 6.625C34.4019 6.625 36.7158 7.39913 38.5873 8.9474C40.4589 10.4957 41.7349 12.4437 42.4155 14.7917H38.0769C37.4644 13.4306 36.5627 12.4097 35.3717 11.7292C34.1807 11.0486 32.9387 10.7083 31.6457 10.7083C29.9103 10.7083 28.413 11.1762 27.154 12.112C25.895 13.0477 24.721 14.2812 23.6321 15.8125H21.2842C20.2293 14.2812 19.0299 13.0477 17.6858 12.112C16.3417 11.1762 14.87 10.7083 13.2707 10.7083C11.3311 10.7083 9.65522 11.3804 8.24307 12.7245C6.83091 14.0686 6.12484 15.7615 6.12484 17.8031C6.12484 18.926 6.36303 20.066 6.83942 21.2229C7.31581 22.3799 8.1665 23.7155 9.3915 25.2297C10.6165 26.7439 12.2839 28.5134 14.3936 30.538C16.5033 32.5627 19.1915 35.0042 22.4582 37.8625C23.3429 37.0799 24.3807 36.1781 25.5717 35.1573C26.7627 34.1365 27.7155 33.2858 28.43 32.6052L28.8894 33.0646L29.8847 34.0599L30.88 35.0552L31.3394 35.5146C30.5908 36.1951 29.638 37.0373 28.4811 38.0411C27.3241 39.045 26.3033 39.9382 25.4186 40.7208L22.4582 43.375Z" fill="white"/>
</g>
</svg>
