<svg width="49" height="50" viewBox="0 0 49 50" fill="none" xmlns="http://www.w3.org/2000/svg">
<g id="Frame">
<path id="Vector" d="M24.4998 45.4167C19.77 44.2257 15.8653 41.512 12.7858 37.2755C9.70626 33.0391 8.1665 28.3347 8.1665 23.1625V10.7083L24.4998 4.58333L40.8332 10.7083V23.1625C40.8332 28.3347 39.2934 33.0391 36.2139 37.2755C33.1344 41.512 29.2297 44.2257 24.4998 45.4167ZM24.4998 41.1292C27.8005 40.1083 30.5568 38.0922 32.7686 35.0807C34.9804 32.0693 36.2735 28.709 36.6478 25H24.4998V8.92187L12.2498 13.5156V24.0812C12.2498 24.3194 12.2839 24.6257 12.3519 25H24.4998V41.1292Z" fill="white"/>
</g>
</svg>
