<svg width="49" height="50" viewBox="0 0 49 50" fill="none" xmlns="http://www.w3.org/2000/svg">
<g id="Frame">
<path id="Vector" d="M21.3356 32.1458C22.1522 32.9625 23.2071 33.3623 24.5002 33.3453C25.7932 33.3283 26.746 32.8604 27.3585 31.9417L38.7918 14.7917L21.6418 26.225C20.7231 26.8375 20.2382 27.7733 20.1871 29.0323C20.1361 30.2913 20.5189 31.3292 21.3356 32.1458ZM24.5002 8.66667C26.5078 8.66667 28.4389 8.9474 30.2934 9.50886C32.1479 10.0703 33.8918 10.9125 35.5252 12.0354L31.646 14.4854C30.5231 13.9069 29.3576 13.4731 28.1496 13.1839C26.9417 12.8946 25.7252 12.75 24.5002 12.75C19.9745 12.75 16.1208 14.3408 12.9392 17.5224C9.75763 20.704 8.16683 24.5576 8.16683 29.0833C8.16683 30.5125 8.36249 31.9247 8.75381 33.3198C9.14513 34.7149 9.69808 36.025 10.4127 37.25H38.5877C39.3703 35.9569 39.9403 34.6129 40.2976 33.2177C40.6549 31.8226 40.8335 30.3764 40.8335 28.8792C40.8335 27.6542 40.6889 26.4632 40.3996 25.3063C40.1104 24.1493 39.6766 23.0264 39.0981 21.9375L41.5481 18.0583C42.5689 19.6576 43.3771 21.359 43.9726 23.1625C44.568 24.966 44.8828 26.8375 44.9168 28.7771C44.9509 30.7167 44.7297 32.5712 44.2533 34.3406C43.7769 36.1101 43.0793 37.7944 42.1606 39.3938C41.7863 40.0063 41.2759 40.4826 40.6293 40.8229C39.9828 41.1632 39.3022 41.3333 38.5877 41.3333H10.4127C9.69808 41.3333 9.01752 41.1632 8.371 40.8229C7.72447 40.4826 7.21405 40.0063 6.83975 39.3938C5.95502 37.8625 5.27447 36.2377 4.79808 34.5193C4.32169 32.8009 4.0835 30.9889 4.0835 29.0833C4.0835 26.259 4.61943 23.6134 5.69131 21.1464C6.76318 18.6793 8.22638 16.5186 10.0809 14.6641C11.9354 12.8096 14.1047 11.3464 16.5887 10.2745C19.0727 9.20261 21.7099 8.66667 24.5002 8.66667Z" fill="white"/>
</g>
</svg>
